<svg width="32" height="32" viewBox="0 0 32 32" fill="none" xmlns="http://www.w3.org/2000/svg">
<circle cx="16" cy="16" r="15.5" stroke="#6E6E6E"/>
<path d="M26 16.5C26 16.71 25.9166 16.9113 25.7681 17.0598C25.6197 17.2083 25.4183 17.2917 25.2083 17.2917H17.2917V25.2083C17.2917 25.4183 17.2083 25.6197 17.0598 25.7681C16.9113 25.9166 16.71 26 16.5 26C16.29 26 16.0887 25.9166 15.9402 25.7681C15.7917 25.6197 15.7083 25.4183 15.7083 25.2083V17.2917H7.79167C7.5817 17.2917 7.38034 17.2083 7.23187 17.0598C7.08341 16.9113 7 16.71 7 16.5C7 16.29 7.08341 16.0887 7.23187 15.9402C7.38034 15.7917 7.5817 15.7083 7.79167 15.7083H15.7083V7.79167C15.7083 7.5817 15.7917 7.38034 15.9402 7.23187C16.0887 7.08341 16.29 7 16.5 7C16.71 7 16.9113 7.08341 17.0598 7.23187C17.2083 7.38034 17.2917 7.5817 17.2917 7.79167V15.7083H25.2083C25.4183 15.7083 25.6197 15.7917 25.7681 15.9402C25.9166 16.0887 26 16.29 26 16.5Z" fill="#6E6E6E"/>
</svg>
