<svg width="32" height="32" viewBox="0 0 32 32" fill="none" xmlns="http://www.w3.org/2000/svg">
<circle cx="16" cy="16" r="15.5" stroke="#6E6E6E"/>
<path d="M14.5094 10.6375C14.7719 10.375 15.0854 10.251 15.45 10.2656C15.8146 10.2802 16.099 10.426 16.3031 10.7031C16.9156 11.5052 17.3931 12.3986 17.7355 13.3832C18.0779 14.3679 18.2494 15.4068 18.25 16.5C18.25 17.6083 18.075 18.6548 17.725 19.6395C17.375 20.6242 16.8865 21.5173 16.2594 22.3187C16.0552 22.5958 15.7743 22.7382 15.4167 22.7458C15.0592 22.7533 14.7494 22.6256 14.4875 22.3625C14.2396 22.1146 14.1118 21.8118 14.1042 21.4543C14.0967 21.0967 14.1952 20.765 14.4 20.4594C14.7937 19.8906 15.0965 19.2746 15.3082 18.6114C15.52 17.9481 15.6256 17.2443 15.625 16.5C15.625 15.7563 15.5156 15.0525 15.2969 14.3886C15.0781 13.7248 14.7792 13.1161 14.4 12.5625C14.1812 12.2417 14.0827 11.9025 14.1042 11.5449C14.1258 11.1873 14.2609 10.8848 14.5094 10.6375ZM18.2062 6.91875C18.4542 6.67083 18.7569 6.54688 19.1145 6.54688C19.4721 6.54688 19.7672 6.67813 20 6.94063C21.0937 8.23854 21.9507 9.69687 22.5707 11.3156C23.1908 12.9344 23.5006 14.6625 23.5 16.5C23.5 18.3375 23.19 20.0656 22.5699 21.6844C21.9498 23.3031 21.0932 24.7615 20 26.0594C19.7667 26.3219 19.475 26.4569 19.125 26.4645C18.775 26.4721 18.4687 26.3443 18.2062 26.0813C17.9583 25.8333 17.8271 25.5309 17.8125 25.1739C17.7979 24.8169 17.9073 24.4922 18.1406 24.2C19.001 23.1354 19.6719 21.9504 20.1531 20.6449C20.6344 19.3394 20.875 17.9578 20.875 16.5C20.875 15.0417 20.6344 13.66 20.1531 12.3551C19.6719 11.0502 19.001 9.86517 18.1406 8.8C17.9073 8.50833 17.7979 8.18371 17.8125 7.82612C17.8271 7.46854 17.9583 7.16608 18.2062 6.91875ZM9.5 16.5C9.5 16.0042 9.66771 15.5885 10.0031 15.2531C10.3385 14.9177 10.7542 14.75 11.25 14.75C11.7458 14.75 12.1615 14.9177 12.4969 15.2531C12.8323 15.5885 13 16.0042 13 16.5C13 16.9958 12.8323 17.4115 12.4969 17.7469C12.1615 18.0823 11.7458 18.25 11.25 18.25C10.7542 18.25 10.3385 18.0823 10.0031 17.7469C9.66771 17.4115 9.5 16.9958 9.5 16.5Z" fill="#6E6E6E"/>
</svg>
