<svg width="8" height="10" viewBox="0 0 8 10" fill="none" xmlns="http://www.w3.org/2000/svg">
<path d="M2.64002 8.5482C2.90261 8.52411 3.00289 8.21467 2.79196 8.07939C2.66715 7.99935 2.64135 7.83923 2.73432 7.72175L3.59044 6.64003C3.67716 6.53045 3.65417 6.3812 3.53885 6.30517C3.42147 6.22778 3.25337 6.2557 3.16509 6.36724L2.30855 7.44949C2.21581 7.56668 2.0397 7.59695 1.91521 7.5171C1.7048 7.38216 1.4134 7.56809 1.47372 7.79879L1.59962 8.2803C1.65327 8.48548 1.86232 8.61955 2.09527 8.59818L2.64002 8.5482Z" fill="white"/>
<path d="M6.88594 2.53236C6.8898 2.53778 6.89365 2.54322 6.89747 2.54867C7.30577 3.13058 7.45181 3.83615 7.30347 4.51018C7.21034 4.93331 7.00599 5.32225 6.71385 5.64504C6.71385 5.64504 6.71385 5.64504 6.71385 5.64504C6.54062 5.83643 6.33653 6.00457 6.10646 6.14278C6.10067 6.14626 6.09487 6.14972 6.08905 6.15315C5.98978 6.21181 5.88704 6.26416 5.78151 6.31008C5.77526 6.3128 5.769 6.31549 5.76274 6.31817L5.61801 6.07671C5.62431 6.07408 5.63059 6.07143 5.63687 6.06875C5.74273 6.02358 5.84553 5.97123 5.94441 5.91183C5.9502 5.90834 5.95598 5.90484 5.96174 5.90132C6.15662 5.78206 6.33029 5.63865 6.47896 5.47625C6.47896 5.47625 6.47896 5.47625 6.47896 5.47625C6.7451 5.18553 6.93115 4.83395 7.01542 4.45107C7.14675 3.85432 7.02018 3.22992 6.66356 2.71244C6.65979 2.70696 6.65598 2.7015 6.65216 2.69604C6.58684 2.60295 6.51497 2.51476 6.43728 2.43193C6.43267 2.42702 6.42805 2.42213 6.4234 2.41726C6.06806 2.04464 5.5938 1.78281 5.06742 1.67481C4.74589 1.60884 4.41456 1.60233 4.09235 1.65565M6.88594 2.53236L4.09235 1.65565M6.88594 2.53236C6.81994 2.43979 6.74812 2.35163 6.67106 2.26824C6.66649 2.26331 6.66191 2.25839 6.65731 2.25348C6.2585 1.82831 5.72229 1.52957 5.1263 1.40729C4.76808 1.33379 4.40275 1.32701 4.05028 1.38363L6.88594 2.53236ZM4.09235 1.65565C3.89292 1.68866 3.69939 1.74418 3.51594 1.82072C3.50964 1.82334 3.50336 1.82599 3.49708 1.82867C3.39084 1.874 3.28806 1.9264 3.18953 1.98559C3.18374 1.98907 3.17796 1.99257 3.1722 1.9961C2.90576 2.15915 2.67629 2.36906 2.49642 2.6144M4.09235 1.65565L4.806 6.27M4.806 6.27C4.56112 6.28832 4.31196 6.27297 4.06652 6.22261C3.54014 6.11461 3.06589 5.85278 2.71054 5.48016C2.7059 5.47529 2.70127 5.4704 2.69667 5.46549C2.61897 5.38266 2.54711 5.29447 2.48179 5.20137C2.47796 5.19592 2.47416 5.19045 2.47038 5.18497C2.11376 4.6675 1.98719 4.0431 2.11853 3.44634C2.18425 3.14773 2.31265 2.86503 2.49642 2.6144M4.806 6.27C5.0863 6.24903 5.36098 6.18393 5.61801 6.07671L5.76273 6.31817C5.47368 6.4415 5.16418 6.51687 4.84807 6.54202L4.806 6.27ZM2.49642 2.6144L2.26153 2.44561M2.49642 2.6144L2.26153 2.44561M2.26153 2.44561C2.0535 2.72594 1.9057 3.04544 1.83047 3.38724C1.68213 4.06127 1.82817 4.76684 2.23647 5.34875C2.2403 5.3542 2.24414 5.35963 2.24801 5.36505C2.314 5.45762 2.38582 5.54578 2.46289 5.62917C2.46745 5.63411 2.47203 5.63903 2.47663 5.64394C2.87544 6.06911 3.41165 6.36784 4.00764 6.49013C4.28662 6.54737 4.5699 6.56414 4.84807 6.54202L2.26153 2.44561Z" fill="white" stroke="white" stroke-width="39"/>
</svg>
