<svg width="27" height="21" viewBox="0 0 27 21" fill="none" xmlns="http://www.w3.org/2000/svg">
<path fill-rule="evenodd" clip-rule="evenodd" d="M13.4998 1.80124C11.728 1.80122 9.99465 2.29516 8.51232 3.22251C7.02998 4.14985 5.86307 5.4703 5.15463 7.02196C4.4462 8.57362 4.22704 10.2891 4.52401 11.958C4.82098 13.6269 5.62118 15.1768 6.82652 16.4176C9.26527 15.88 12.2716 14.787 15.3559 13.2176C18.2367 11.7502 20.6679 10.1317 22.3934 8.63187C21.9471 6.69569 20.8222 4.96316 19.2049 3.72102C17.5876 2.47887 15.5749 1.80158 13.4998 1.80124ZM22.5981 10.8372C20.8625 12.1882 18.69 13.5596 16.2412 14.805C13.5789 16.1608 10.9367 17.1926 8.60221 17.8346C9.95322 18.6581 11.5078 19.1263 13.1089 19.1919C14.7099 19.2575 16.3007 18.9182 17.7206 18.2083C19.1405 17.4984 20.339 16.4429 21.1952 15.1487C22.0514 13.8544 22.5349 12.3671 22.5968 10.8372H22.5981ZM6.22876 18.3721C7.8964 19.7786 9.97158 20.6684 12.1799 20.9239C14.3882 21.1793 16.6257 20.7884 18.5965 19.8028C20.5673 18.8172 22.1786 17.2833 23.2173 15.4039C24.256 13.5245 24.6733 11.3882 24.4139 9.27737L24.527 9.16939C25.4738 8.24552 26.2122 7.32165 26.6266 6.44818C27.0335 5.5891 27.2018 4.59564 26.6417 3.73896C26.1143 2.93508 25.1536 2.58713 24.1854 2.46234C23.2172 2.33756 22.048 2.40955 20.7696 2.62792C19.102 1.2214 17.0268 0.331585 14.8185 0.0761248C12.6101 -0.179336 10.3727 0.211589 8.40189 1.19721C6.4311 2.18284 4.81982 3.71674 3.78108 5.59611C2.74234 7.47548 2.32507 9.61181 2.58444 11.7226C1.63255 12.6357 0.884093 13.5464 0.445821 14.4054C-0.0138005 15.3053 -0.232309 16.3576 0.357915 17.261C0.901674 18.0901 1.90505 18.4357 2.90969 18.5497C3.85656 18.6576 4.99054 18.5845 6.22876 18.3721ZM4.67785 16.7607C3.99149 15.8794 3.45455 14.9003 3.08676 13.8595C2.65476 14.3515 2.33956 14.8014 2.13738 15.1961C1.78952 15.8764 1.87617 16.186 1.95529 16.306C2.0457 16.4452 2.3383 16.6719 3.13197 16.7619C3.56271 16.8111 4.08009 16.8123 4.67785 16.7607ZM22.3218 4.23929C22.8583 4.18495 23.3994 4.18696 23.9355 4.24529C24.6814 4.34128 24.9564 4.55964 25.0443 4.69403C25.1197 4.80801 25.2026 5.08997 24.91 5.70668C24.7141 6.11942 24.3825 6.60415 23.9129 7.14048C23.5451 6.09964 23.0082 5.12059 22.3218 4.23929Z" fill="#CB61C5"/>
</svg>
