<svg width="5" height="8" viewBox="0 0 5 8" fill="none" xmlns="http://www.w3.org/2000/svg">
<path d="M0.85 5.19055C0.929565 5.16422 1.01509 5.17483 1.08776 5.22004C1.16043 5.26525 1.21429 5.34137 1.2375 5.43164C1.26071 5.52191 1.25136 5.61894 1.2115 5.70139C1.17165 5.78383 1.10457 5.84494 1.025 5.87127V5.87127C0.853174 5.9282 0.853285 6.12618 1.02515 6.18298C1.02975 6.1845 1.03439 6.18601 1.03906 6.18753C1.4 6.30453 1.91656 6.38182 2.5 6.38182C3.08344 6.38182 3.6 6.30453 3.96094 6.18753C3.9657 6.18599 3.97043 6.18444 3.97511 6.1829C4.14704 6.12616 4.14718 5.92821 3.97531 5.87127V5.87127C3.897 5.84378 3.83134 5.78248 3.79249 5.70059C3.75365 5.61869 3.74472 5.52275 3.76763 5.43346C3.79055 5.34416 3.84347 5.26866 3.915 5.22322C3.98652 5.17778 4.07092 5.16604 4.15 5.19055C4.35875 5.25968 4.55 5.34832 4.69688 5.46213C4.83281 5.56814 5 5.75285 5 6.02727C5 6.30488 4.82875 6.49102 4.69063 6.59703C4.54125 6.71119 4.34594 6.80018 4.1325 6.86932C3.70188 7.00936 3.125 7.09091 2.5 7.09091C1.875 7.09091 1.29813 7.00936 0.8675 6.86932C0.654062 6.80018 0.45875 6.71119 0.309375 6.59703C0.17125 6.49066 0 6.30488 0 6.02727C0 5.75285 0.167187 5.56814 0.303125 5.46213C0.45 5.34832 0.64125 5.25968 0.85 5.19055ZM2.5 0C3.1216 0 3.71774 0.280153 4.15728 0.77883C4.59682 1.27751 4.84375 1.95386 4.84375 2.65909C4.84375 3.56956 4.40625 4.30985 3.95312 4.836C3.773 5.04303 3.57943 5.23443 3.37406 5.40859C3.237 5.52535 2.96976 5.7175 2.83932 5.81005C2.78914 5.84565 2.7393 5.88245 2.68242 5.90589C2.62416 5.9299 2.56244 5.94231 2.5 5.94231C2.40742 5.94231 2.31643 5.91502 2.23594 5.86312C2.02524 5.72473 1.82158 5.57298 1.62594 5.40859C1.42048 5.23454 1.22691 5.04314 1.04687 4.836C0.59375 4.30985 0.15625 3.56956 0.15625 2.65909C0.15625 1.95386 0.40318 1.27751 0.842718 0.77883C1.28226 0.280153 1.8784 0 2.5 0ZM2.5 1.95C2.33424 1.95 2.17527 2.02471 2.05806 2.15769C1.94085 2.29067 1.875 2.47103 1.875 2.65909C1.875 2.84715 1.94085 3.02751 2.05806 3.16049C2.17527 3.29347 2.33424 3.36818 2.5 3.36818C2.66576 3.36818 2.82473 3.29347 2.94194 3.16049C3.05915 3.02751 3.125 2.84715 3.125 2.65909C3.125 2.47103 3.05915 2.29067 2.94194 2.15769C2.82473 2.02471 2.66576 1.95 2.5 1.95Z" fill="white"/>
</svg>
