<svg width="23" height="23" viewBox="0 0 23 23" fill="none" xmlns="http://www.w3.org/2000/svg">
<path d="M5.84456 12.3044C6.29051 12.3044 6.65202 11.9429 6.65202 11.4969C6.65202 11.051 6.29051 10.6895 5.84456 10.6895C5.39862 10.6895 5.03711 11.051 5.03711 11.4969C5.03711 11.9429 5.39862 12.3044 5.84456 12.3044Z" stroke="#959595" stroke-linecap="round" stroke-linejoin="round"/>
<path d="M11.0931 12.3044C11.539 12.3044 11.9006 11.9429 11.9006 11.4969C11.9006 11.051 11.539 10.6895 11.0931 10.6895C10.6472 10.6895 10.2856 11.051 10.2856 11.4969C10.2856 11.9429 10.6472 12.3044 11.0931 12.3044Z" stroke="#959595" stroke-linecap="round" stroke-linejoin="round"/>
<path d="M16.3416 12.3044C16.7876 12.3044 17.1491 11.9429 17.1491 11.4969C17.1491 11.051 16.7876 10.6895 16.3416 10.6895C15.8957 10.6895 15.5342 11.051 15.5342 11.4969C15.5342 11.9429 15.8957 12.3044 16.3416 12.3044Z" stroke="#959595" stroke-linecap="round" stroke-linejoin="round"/>
<path d="M11.4969 1C9.59816 1.00059 7.73513 1.51619 6.10625 2.49187C4.47736 3.46756 3.14362 4.8668 2.24709 6.54055C1.35055 8.2143 0.924795 10.0999 1.01516 11.9965C1.10553 13.8931 1.70864 15.7296 2.76025 17.3106L1 21.9938L6.89441 20.928C8.31377 21.6216 9.87137 21.9859 11.4511 21.9937C13.0309 22.0015 14.592 21.6527 16.0181 20.9732C17.4443 20.2936 18.6987 19.301 19.6878 18.0692C20.6769 16.8374 21.3753 15.3983 21.7308 13.859C22.0863 12.3198 22.0898 10.7202 21.741 9.17939C21.3922 7.63861 20.7001 6.19643 19.7164 4.96035C18.7327 3.72426 17.4826 2.72616 16.0594 2.04044C14.6363 1.35472 13.0767 0.999069 11.4969 1Z" stroke="#959595" stroke-linecap="round" stroke-linejoin="round"/>
</svg>
