<svg width="35" height="35" viewBox="0 0 35 35" fill="none" xmlns="http://www.w3.org/2000/svg">
<circle cx="17.5" cy="17.5" r="17.5" fill="#202020"/>
<path d="M23.3333 15.25V11.1667C23.3333 10.8572 23.2104 10.5605 22.9916 10.3417C22.7728 10.1229 22.4761 10 22.1667 10H8.16667C7.85725 10 7.5605 10.1229 7.34171 10.3417C7.12292 10.5605 7 10.8572 7 11.1667V22.8333C7 23.1428 7.12292 23.4395 7.34171 23.6583C7.5605 23.8771 7.85725 24 8.16667 24H22.1667C22.4761 24 22.7728 23.8771 22.9916 23.6583C23.2104 23.4395 23.3333 23.1428 23.3333 22.8333V18.75L28 23.4167V10.5833L23.3333 15.25Z" fill="white"/>
</svg>
