<svg width="35" height="35" viewBox="0 0 35 35" fill="none" xmlns="http://www.w3.org/2000/svg">
<circle cx="17.5" cy="17.5" r="17.5" fill="#202020"/>
<path d="M8 10.8889C8 10.3879 8.19901 9.90748 8.55324 9.55324C8.90748 9.19901 9.38792 9 9.88889 9H25C25.501 9 25.9814 9.19901 26.3356 9.55324C26.6899 9.90748 26.8889 10.3879 26.8889 10.8889V21.2778C26.8889 21.7787 26.6899 22.2592 26.3356 22.6134C25.9814 22.9676 25.501 23.1667 25 23.1667H20.6688L18.1122 25.7233C17.9351 25.9003 17.6949 25.9998 17.4444 25.9998C17.194 25.9998 16.9538 25.9003 16.7767 25.7233L14.2201 23.1667H9.88889C9.38792 23.1667 8.90748 22.9676 8.55324 22.6134C8.19901 22.2592 8 21.7787 8 21.2778V10.8889ZM25 10.8889H9.88889V21.2778H14.6111C14.8616 21.2778 15.1018 21.3774 15.2788 21.5545L17.4444 23.7201L19.61 21.5545C19.7871 21.3774 20.0273 21.2778 20.2778 21.2778H25V10.8889Z" fill="white"/>
<path d="M18.8611 17.4999C18.8611 17.8756 18.7119 18.236 18.4462 18.5017C18.1805 18.7673 17.8202 18.9166 17.4444 18.9166C17.0687 18.9166 16.7084 18.7673 16.4427 18.5017C16.177 18.236 16.0278 17.8756 16.0278 17.4999C16.0278 17.1242 16.177 16.7639 16.4427 16.4982C16.7084 16.2325 17.0687 16.0833 17.4444 16.0833C17.8202 16.0833 18.1805 16.2325 18.4462 16.4982C18.7119 16.7639 18.8611 17.1242 18.8611 17.4999ZM22.6389 17.4999C22.6389 17.8756 22.4896 18.236 22.2239 18.5017C21.9583 18.7673 21.5979 18.9166 21.2222 18.9166C20.8465 18.9166 20.4862 18.7673 20.2205 18.5017C19.9548 18.236 19.8056 17.8756 19.8056 17.4999C19.8056 17.1242 19.9548 16.7639 20.2205 16.4982C20.4862 16.2325 20.8465 16.0833 21.2222 16.0833C21.5979 16.0833 21.9583 16.2325 22.2239 16.4982C22.4896 16.7639 22.6389 17.1242 22.6389 17.4999ZM15.0833 17.4999C15.0833 17.8756 14.9341 18.236 14.6684 18.5017C14.4027 18.7673 14.0424 18.9166 13.6667 18.9166C13.2909 18.9166 12.9306 18.7673 12.6649 18.5017C12.3993 18.236 12.25 17.8756 12.25 17.4999C12.25 17.1242 12.3993 16.7639 12.6649 16.4982C12.9306 16.2325 13.2909 16.0833 13.6667 16.0833C14.0424 16.0833 14.4027 16.2325 14.6684 16.4982C14.9341 16.7639 15.0833 17.1242 15.0833 17.4999Z" fill="white"/>
</svg>
