<svg width="32" height="32" viewBox="0 0 32 32" fill="none" xmlns="http://www.w3.org/2000/svg">
<circle cx="16" cy="16" r="15.5" stroke="#6E6E6E"/>
<path d="M24.59 17C24.7655 17.304 24.8579 17.6489 24.8579 18C24.8579 18.3511 24.7655 18.696 24.59 19C23.7124 20.5207 22.4498 21.7835 20.9292 22.6612C19.4087 23.539 17.6837 24.0007 15.9279 24C14.1725 24.0004 12.448 23.5384 10.9278 22.6607C9.40757 21.783 8.1453 20.5204 7.26795 19C7.0925 18.6961 7.00009 18.3514 7 18.0005C6.99991 17.6496 7.09214 17.3049 7.26744 17.0009C7.44273 16.6969 7.69492 16.4444 7.99867 16.2687C8.30242 16.093 8.64705 16.0004 8.99795 16H22.858C23.209 16 23.5539 16.0924 23.8579 16.268C24.162 16.4435 24.4144 16.696 24.59 17ZM13.9279 11C13.9279 12.656 13.0319 11 11.9279 11C10.8239 11 9.92795 12.656 9.92795 11C9.92795 9.344 10.8239 8 11.9279 8C13.0319 8 13.9279 9.344 13.9279 11ZM21.9279 11C21.9279 12.656 21.0319 11 19.9279 11C18.8239 11 17.9279 12.656 17.9279 11C17.9279 9.344 18.8239 8 19.9279 8C21.0319 8 21.9279 9.344 21.9279 11Z" fill="#6E6E6E"/>
</svg>
