<svg width="28" height="21" viewBox="0 0 28 21" fill="none" xmlns="http://www.w3.org/2000/svg">
<path d="M2 0C0.89543 0 0 0.895431 0 2V19C0 20.1046 0.895431 21 2 21H20.4466C21.3045 21 22 20.3045 22 19.4466C22 18.2113 23.3722 17.4702 24.4052 18.1477L26.563 19.5628C27.1797 19.9684 28 19.526 28 18.7879V2.21291C28 1.47431 27.1792 1.03156 26.562 1.43719L24.4046 2.85176C23.3718 3.52894 22 2.78803 22 1.55302C22 0.69531 21.3047 0 20.447 0H2ZM2 4.625C2 3.52043 2.89543 2.625 4 2.625H18C19.1046 2.625 20 3.52043 20 4.625V16.375C20 17.4796 19.1046 18.375 18 18.375H4C2.89543 18.375 2 17.4796 2 16.375V4.625ZM22.9027 6.79042C24.2327 5.9176 26 6.87169 26 8.46252V12.5375C26 14.1283 24.2327 15.0824 22.9027 14.2096C22.3393 13.8399 22 13.2113 22 12.5375V8.46252C22 7.78868 22.3393 7.16013 22.9027 6.79042Z" fill="#AFAFAF"/>
</svg>
