<svg width="32" height="21" viewBox="0 0 32 21" fill="none" xmlns="http://www.w3.org/2000/svg">
<path d="M3.2 0H20.8C22.56 0 24 1.575 24 3.5V17.5C24 19.425 22.56 21 20.8 21H3.2C1.44 21 0 19.425 0 17.5V3.5C0 1.575 1.44 0 3.2 0Z" fill="#CB61C5"/>
<path d="M32 16.4203C32 18.0111 30.2327 18.9652 28.9027 18.0924L24.9027 15.4674C24.3393 15.0977 24 14.4691 24 13.7953V7.20471C24 6.53086 24.3393 5.90232 24.9027 5.53261L28.9027 2.90761C30.2327 2.03479 32 2.98887 32 4.57971V16.4203Z" fill="#CB61C5"/>
</svg>
